<svg version="1.0" xmlns="http://www.w3.org/2000/svg"
 width="1024.0000pt" height="1024.0000pt" viewBox="0 0 512.000000 512.000000"
 preserveAspectRatio="xMidYMid meet">

<g transform="translate(0.000000,512.000000) scale(0.11200000,-0.11200000)"
fill="#FF0000" stroke="none">
<path d="M1159 5102 c-85 -23 -169 -74 -231 -141 -98 -108 -128 -203 -128
-418 l0 -143 -178 0 c-246 0 -325 -23 -423 -120 -57 -57 -93 -125 -109 -205
-8 -43 -10 -381 -8 -1220 l3 -1160 22 -40 c25 -47 64 -85 113 -111 32 -17 65
-19 348 -22 l312 -3 0 -124 c0 -70 5 -135 11 -148 14 -32 49 -47 104 -47 l45
0 0 -125 c0 -69 5 -135 11 -148 14 -32 49 -47 104 -47 l45 0 0 -198 c0 -230 9
-290 57 -391 95 -199 320 -317 540 -283 215 34 394 206 432 416 6 33 11 168
11 301 0 287 5 312 84 391 114 113 278 113 392 0 78 -79 84 -105 84 -385 0
-272 10 -335 66 -442 172 -327 611 -384 880 -115 71 71 108 130 147 236 19 51
21 81 25 383 l3 327 44 0 c55 0 90 15 104 47 15 33 15 433 0 466 -14 32 -49
47 -104 47 l-45 0 0 179 0 179 118 93 c606 478 931 916 993 1338 52 361 -106
728 -371 861 -109 54 -155 64 -300 65 -112 0 -147 -4 -205 -22 -93 -30 -186
-85 -257 -154 l-58 -57 -58 57 c-113 109 -248 168 -407 178 -295 18 -517 -114
-646 -382 -56 -117 -80 -217 -86 -370 -4 -108 -1 -147 17 -234 62 -304 240
-590 567 -916 120 -119 357 -323 470 -405 l62 -45 1 -182 0 -183 -45 0 c-56 0
-100 -21 -109 -52 -11 -42 -7 -435 5 -461 14 -32 49 -47 104 -47 l45 0 0 -299
c0 -270 -2 -305 -20 -363 -37 -121 -131 -222 -250 -270 -43 -18 -76 -22 -150
-23 -88 0 -101 3 -161 32 -80 39 -150 111 -187 191 -27 56 -27 60 -33 342 -5
265 -7 289 -28 342 -45 116 -143 214 -259 259 -81 32 -223 32 -304 0 -116 -45
-214 -143 -259 -259 -21 -53 -23 -77 -29 -352 l-5 -295 -28 -56 c-33 -68 -118
-151 -184 -181 -69 -31 -217 -31 -286 0 -66 30 -151 113 -184 181 -28 55 -28
59 -31 284 l-4 227 46 0 c56 0 91 15 105 47 6 13 11 79 11 148 l0 125 45 0
c55 0 90 15 104 47 6 13 11 78 11 148 l0 124 313 3 c282 3 315 5 347 22 49 26
88 64 113 111 l22 40 3 1160 c2 839 0 1177 -8 1220 -31 157 -152 281 -308 314
-29 6 -132 11 -227 11 l-175 0 0 143 c0 225 -33 321 -146 434 -124 124 -286
169 -455 125z m253 -174 c70 -32 124 -86 157 -157 24 -52 26 -68 29 -213 l4
-158 -40 0 -41 0 -3 158 c-3 157 -3 159 -33 208 -65 104 -195 143 -308 91 -30
-14 -65 -39 -80 -59 -50 -65 -57 -96 -57 -253 l0 -145 -40 0 -40 0 0 138 c0
93 5 155 15 188 56 189 259 283 437 202z m-81 -237 l29 -29 0 -131 0 -131 -80
0 -80 0 0 125 c0 131 8 166 44 183 35 18 56 13 87 -17z m830 -466 c57 -20 123
-86 144 -144 13 -38 15 -184 15 -1198 l0 -1154 -25 -24 -24 -25 -351 0 -351 0
-24 -25 c-24 -23 -25 -29 -25 -160 l0 -135 -240 0 -240 0 0 135 c0 131 -1 137
-25 160 l-24 25 -351 0 -351 0 -24 25 -25 24 0 1152 c0 875 3 1162 12 1193 15
51 99 137 148 153 24 8 293 11 876 12 731 1 846 -1 885 -14z m1843 -663 c91
-42 149 -100 194 -190 35 -72 37 -81 37 -172 0 -91 -2 -100 -37 -172 -45 -91
-103 -147 -196 -191 -61 -29 -76 -32 -162 -32 -86 0 -101 3 -162 32 -93 44
-151 100 -196 191 -35 72 -37 81 -37 171 0 87 3 102 31 161 53 112 127 179
240 220 86 30 200 23 288 -18z"/>
<path d="M562 4067 c-19 -6 -55 -30 -82 -54 -85 -76 -80 -12 -80 -1053 0
-1040 -5 -977 80 -1053 26 -24 66 -49 88 -55 55 -17 1368 -17 1423 0 51 15
114 69 142 122 21 38 22 56 25 276 4 259 -1 285 -48 303 -30 11 -30 12 -30 88
0 77 0 77 30 88 18 6 34 21 40 37 7 18 10 220 8 583 -3 548 -3 557 -25 596
-28 52 -68 89 -123 114 -44 20 -61 21 -730 20 -455 -1 -696 -5 -718 -12z"/>
<path d="M3785 3415 c-21 -20 -25 -34 -25 -80 l0 -55 -55 0 c-67 0 -105 -29
-105 -80 0 -51 38 -80 105 -80 l55 0 0 -55 c0 -46 4 -60 25 -80 29 -30 73 -33
106 -6 18 14 23 31 27 78 l4 61 59 4 c73 5 94 23 94 79 0 56 -29 79 -100 79
l-53 0 -4 61 c-4 49 -9 66 -27 80 -33 27 -77 24 -106 -6z"/>
</g>
</svg>
